<svg height="480pt" viewBox="-16 0 480 480" width="480pt" xmlns="http://www.w3.org/2000/svg"><path d="m445.183594 137.441406-22.625-22.625c-3.121094-3.125-8.1875-3.125-11.3125 0l-16.972656 16.96875c-3.125-3.125-8.1875-3.125-11.3125 0l-14.960938 14.957032v-122.742188c0-13.253906-10.746094-24-24-24h-320c-13.253906 0-24 10.746094-24 24v432c0 13.253906 10.746094 24 24 24h320c13.253906 0 24-10.746094 24-24v-192.097656l3.648438 3.640625 56.566406-56.558594c1.503906-1.5 2.347656-3.535156 2.347656-5.660156s-.84375-4.160157-2.347656-5.660157l-11.3125-11.3125 11.3125-11.3125c3.125-3.125 3.125-8.1875 0-11.3125l16.96875-16.972656c3.125-3.125 3.125-8.191406 0-11.3125zm-56.566406 11.3125 22.628906 22.628906-22.628906 22.625-22.625-22.625zm-147.082032 192.335938-22.625-22.625 135.761719-135.769532 22.632813 22.632813zm-47.078125 20.796875 13.597657-31.679688 21.738281 21.792969-31.679688 13.601562zm109.542969-345.886719v52.6875l-10.34375-10.34375c-3.125-3.121094-8.1875-3.121094-11.3125 0l-10.34375 10.34375v-52.6875zm40 448h-320c-4.417969 0-8-3.582031-8-8v-432c0-4.417969 3.582031-8 8-8h232v72c0 3.234375 1.949219 6.152344 4.9375 7.390625s6.429688.550781 8.71875-1.734375l18.34375-18.34375 18.34375 18.34375c2.289062 2.285156 5.730469 2.972656 8.71875 1.734375s4.9375-4.15625 4.9375-7.390625v-72h24c4.417969 0 8 3.582031 8 8v138.742188l-155.710938 155.722656c-.722656.714844-1.296874 1.566406-1.695312 2.503906l-16.992188 39.589844c-1.285156 3.003906-.613281 6.488281 1.695313 8.800781l-16.96875 16.96875 11.3125 11.3125 16.96875-16.96875c2.308594 2.308594 5.792969 2.980469 8.796875 1.695313l39.59375-16.976563c.9375-.398437 1.785156-.972656 2.503906-1.695313l110.496094-110.4375v202.742188c0 4.417969-3.582031 8-8 8zm67.246094-258.671875-43.246094 43.238281v-11.308594l37.601562-37.601562zm5.65625-50.914063-11.300782-11.316406 11.320313-11.3125 11.308594 11.3125zm0 0"/><path d="m48 160h224v16h-224zm0 0"/><path d="m48 208h224v16h-224zm0 0"/><path d="m48 256h144v16h-144zm0 0"/><path d="m48 112h80v16h-80zm0 0"/></svg>